<svg width="302" height="338" viewBox="0 0 302 338" fill="none" xmlns="http://www.w3.org/2000/svg">
<g clip-path="url(#clip0_2200_153)">
<path d="M133.24 0.50008C107.65 0.475139 82.392 6.2901 59.3891 17.5021C36.3863 28.7142 16.2453 45.0276 0.5 65.2001L0.5 272.8C18.1045 295.311 41.1452 312.976 67.4554 324.131C93.7656 335.287 122.481 339.568 150.901 336.571C179.321 333.575 206.512 323.399 229.917 307.001C253.322 290.603 272.172 268.522 284.694 242.834C297.216 217.146 303 188.696 301.5 160.157C300 131.619 291.267 103.931 276.121 79.6973C260.975 55.4633 239.915 35.4796 214.92 21.6253C189.925 7.77103 161.818 0.50142 133.24 0.50008Z" fill="#FFCA56"/>
</g>
<defs>
<clipPath id="clip0_2200_153">
<rect width="301.24" height="337" fill="white" transform="translate(0.5 0.5)"/>
</clipPath>
</defs>
</svg>
